<svg width="33px" height="18px" viewBox="0 0 33 18" version="1.1" xmlns="http://www.w3.org/2000/svg" xmlns:xlink="http://www.w3.org/1999/xlink">
    <defs></defs>
    <g id="Page-1" stroke="none" stroke-width="1" fill="none" fill-rule="evenodd">
        <g id="iPhone-X" transform="translate(-32.000000, -274.000000)" fill="#1B0083">
            <g id="Group-7" transform="translate(32.000000, 249.000000)">
                <g id="Group-2">
                    <g id="Cloudy" transform="translate(0.000000, 25.000000)">
                        <path d="M27.6923077,18 L4.84615385,18 C2.16969685,18 0,15.8303032 0,13.1538462 C0,10.4773892 2.16969685,8.30769231 4.84615385,8.30769231 C4.92473733,8.30769231 5.00288396,8.30956274 5.08055163,8.3132615 C5.64921119,6.69700969 7.18930881,5.53846154 9,5.53846154 C11.0470624,5.53846154 12.7482724,7.01923112 13.0909277,8.96806809 C13.1322207,8.75429899 13.1538462,8.5335211 13.1538462,8.30769231 C13.1538462,6.72423906 12.0906411,5.3891108 10.6391733,4.97724996 C12.1161964,2.02614495 15.1676361,0 18.6923077,0 C23.1924045,0 26.9211001,3.30275928 27.5866307,7.61651404 C24.9589713,7.67273003 22.8461538,9.82039663 22.8461538,12.4615385 L22.8952307,12.4615385 C23.2311589,10.113027 25.2509039,8.30769231 27.6923077,8.30769231 C30.3687647,8.30769231 32.5384615,10.4773892 32.5384615,13.1538462 C32.5384615,15.8303032 30.3687647,18 27.6923077,18 Z" id="Cloud"></path>
                    </g>
                </g>
            </g>
        </g>
    </g>
</svg>
