<svg width="20px" height="17px" viewBox="0 0 20 17" version="1.1" xmlns="http://www.w3.org/2000/svg" xmlns:xlink="http://www.w3.org/1999/xlink">
    <defs></defs>
    <g id="Page-1" stroke="none" stroke-width="1" fill="none" fill-rule="evenodd">
        <g id="Cloud_icons" transform="translate(-140.000000, -228.000000)" fill="#1B0083">
            <g id="Icons" transform="translate(28.000000, 52.000000)">
                <g id="Row_3" transform="translate(12.000000, 169.000000)">
                    <g id="Snowflake" transform="translate(100.000000, 7.000000)">
                        <path d="M7.86511243,10.391387 C7.45531637,10.0368523 7.16193191,9.55137331 7.05000905,9 L4.73319956,9 C4.69249151,9.07206236 4.63331002,9.13435829 4.55728395,9.17825196 L1.94271605,10.6877734 C1.70419434,10.825484 1.40602038,10.7391463 1.26794919,10.5 C1.13391599,10.2678477 1.20812379,9.95718994 1.44271605,9.82174804 L2.8660254,9 L0.497385584,9 C0.216270149,9 0,8.77614237 0,8.5 C0,8.23193359 0.222687111,8 0.497385584,8 L2.85662731,8 L1.45489355,7.12409953 C1.22132317,6.97814856 1.15757064,6.67434349 1.30390381,6.44016147 C1.44595736,6.21282827 1.75509032,6.13250489 1.98481281,6.27605144 L4.54510645,7.87590047 C4.59924556,7.90973034 4.64426099,7.95204112 4.67965128,8 L7.05000905,8 C7.16193191,7.44862669 7.45531637,6.96314769 7.86511243,6.608613 L6.70081483,4.59199039 C6.61805296,4.59276737 6.53451236,4.57266266 6.4584863,4.52876899 L3.84391839,3.0192475 C3.60539668,2.88153693 3.53108035,2.58014186 3.66915153,2.34099554 C3.80318474,2.10884323 4.10932613,2.0177802 4.34391839,2.1532221 L5.76722775,2.97497014 L4.58290784,0.923667883 C4.44235012,0.680214775 4.52808143,0.38099052 4.76722775,0.242919332 C4.99938006,0.108886129 5.311584,0.185772028 5.44893324,0.423667883 L6.6285541,2.46683115 L6.68623928,0.814943871 C6.69585134,0.539690507 6.92707799,0.33257666 7.20305214,0.34221389 C7.47095525,0.351569272 7.69508381,0.579124578 7.6856301,0.849843367 L7.58026702,3.86704722 C7.57803905,3.930848 7.56390455,3.99098789 7.54006609,4.04561622 L8.73690564,6.11860313 C8.97746326,6.04158196 9.23387563,6 9.5,6 C9.78754513,6 10.0637519,6.04854536 10.3208716,6.13788741 L11.5020708,4.09199039 C11.4600169,4.02070501 11.4356578,3.93830437 11.4356578,3.85051703 L11.4356578,0.831474059 C11.4356578,0.556052917 11.6595155,0.340995544 11.9356578,0.340995544 C12.2037242,0.340995544 12.4356578,0.560590255 12.4356578,0.831474059 L12.4356578,2.47497014 L13.6199777,0.423667883 C13.7605355,0.180214775 14.0625369,0.104848145 14.3016832,0.242919332 C14.5338356,0.376952536 14.6233524,0.685772028 14.4860031,0.923667883 L13.3063823,2.96683115 L14.7658012,2.19084434 C15.0089837,2.06154194 15.3039628,2.15823317 15.4336038,2.40205242 C15.5594534,2.63874101 15.474449,2.94661969 15.2352728,3.07379193 L12.5696161,4.49114675 C12.513249,4.52111766 12.4540991,4.53894677 12.3948703,4.54561622 L11.1804681,6.6490226 C11.5664194,6.99962936 11.8422627,7.46929081 11.9499909,8 L14.3357114,8 C14.3764195,7.92793764 14.435601,7.86564171 14.511627,7.82174804 L17.1261949,6.31222656 C17.3647166,6.17451598 17.6628906,6.26085369 17.8009618,6.5 C17.934995,6.73215232 17.8607872,7.04281006 17.6261949,7.17825196 L16.2028856,8 L18.5715254,8 C18.8526408,8 19.068911,8.22385763 19.068911,8.5 C19.068911,8.76806641 18.8462239,9 18.5715254,9 L16.2122837,9 L17.6140174,9.87590047 C17.8475878,10.0218514 17.9113403,10.3256565 17.7650072,10.5598385 C17.6229536,10.7871717 17.3138207,10.8674951 17.0840982,10.7239486 L14.5238045,9.12409953 C14.4696654,9.09026966 14.42465,9.04795888 14.3892597,9 L11.9499909,9 C11.8422627,9.53070919 11.5664194,10.0003706 11.1804681,10.3509774 L12.3680962,12.4080096 C12.450858,12.4072326 12.5343986,12.4273373 12.6104247,12.471231 L15.2249926,13.9807525 C15.4635143,14.1184631 15.5378306,14.4198581 15.3997594,14.6590045 C15.2657262,14.8911568 14.9595849,14.9822198 14.7249926,14.8467779 L13.3016832,14.0250299 L14.4860031,16.0763321 C14.6265609,16.3197852 14.5408296,16.6190095 14.3016832,16.7570807 C14.0695309,16.8911139 13.757327,16.814228 13.6199777,16.5763321 L12.4403569,14.5331689 L12.3826717,16.1850561 C12.3730596,16.4603095 12.141833,16.6674233 11.8658588,16.6577861 C11.5979557,16.6484307 11.3738272,16.4208754 11.3832809,16.1501566 L11.488644,13.1329528 C11.4908719,13.069152 11.5050064,13.0090121 11.5288449,12.9543838 L10.3208716,10.8621126 C10.0637519,10.9514546 9.78754513,11 9.5,11 C9.23387563,11 8.97746326,10.958418 8.73690564,10.8813969 L7.56684023,12.9080096 C7.60889404,12.979295 7.63325315,13.0616956 7.63325315,13.149483 L7.63325315,16.1685259 C7.63325315,16.4439471 7.40939552,16.6590045 7.13325315,16.6590045 C6.86518674,16.6590045 6.63325315,16.4394097 6.63325315,16.1685259 L6.63325315,14.5250299 L5.44893324,16.5763321 C5.30837552,16.8197852 5.00637406,16.8951519 4.76722775,16.7570807 C4.53507543,16.6230475 4.4455586,16.314228 4.58290784,16.0763321 L5.7625287,14.0331689 L4.30310976,14.8091557 C4.05992733,14.9384581 3.76494815,14.8417668 3.63530716,14.5979476 C3.5094576,14.361259 3.594462,14.0533803 3.8336382,13.9262081 L6.49929492,12.5088532 C6.555662,12.4788823 6.61481193,12.4610532 6.67404068,12.4543838 L7.86511243,10.391387 Z M9.5,10 C10.3284272,10 11,9.32842717 11,8.5 C11,7.67157283 10.3284272,7 9.5,7 C8.67157283,7 8,7.67157283 8,8.5 C8,9.32842717 8.67157283,10 9.5,10 Z" id="Rectangle-68"></path>
                    </g>
                </g>
            </g>
        </g>
    </g>
</svg>
