<svg width="60px" height="46px" viewBox="0 0 60 46" version="1.1" xmlns="http://www.w3.org/2000/svg" xmlns:xlink="http://www.w3.org/1999/xlink">
    <defs></defs>
    <g id="Page-1" stroke="none" stroke-width="1" fill="none" fill-rule="evenodd">
        <g id="Cloudy" transform="translate(-30.000000, -175.000000)" fill="#1B0083">
            <g id="big_rain" transform="translate(30.000000, 175.000000)">
                <circle id="Oval" fill-opacity="0.2" cx="7.5" cy="24.5" r="7.5"></circle>
                <circle id="Oval-Copy" fill-opacity="0.2" cx="45" cy="26" r="6"></circle>
                <circle id="Oval-Copy-4" fill-opacity="0.2" cx="25.5" cy="23.5" r="9.5"></circle>
                <circle id="Oval-46" fill-opacity="0.569999993" cx="35" cy="16" r="16"></circle>
                <circle id="Oval" fill-opacity="0.4" cx="50.5" cy="21.5" r="9.5"></circle>
                <circle id="Oval-45" fill-opacity="0.4" cx="19.5" cy="21.5" r="11.5"></circle>
                <path d="M13.7167492,41.9855808 C15.0041289,41.9855808 16.0477563,40.9419535 16.0477563,39.6545738 C16.0477563,38.3671941 13.7167492,34.4098079 13.7167492,34.4098079 C13.7167492,34.4098079 11.3857422,38.3671941 11.3857422,39.6545738 C11.3857422,40.9419535 12.4293695,41.9855808 13.7167492,41.9855808 Z" id="Oval-Copy-5" fill-opacity="0.5"></path>
                <path d="M30.5,41.9855808 C31.7873797,41.9855808 32.8310071,40.9419535 32.8310071,39.6545738 C32.8310071,38.3671941 30.5,34.4098079 30.5,34.4098079 C30.5,34.4098079 28.1689929,38.3671941 28.1689929,39.6545738 C28.1689929,40.9419535 29.2126203,41.9855808 30.5,41.9855808 Z" id="Oval-Copy-7" fill-opacity="0.5"></path>
                <path d="M47.2832508,41.9855808 C48.5706305,41.9855808 49.6142578,40.9419535 49.6142578,39.6545738 C49.6142578,38.3671941 47.2832508,34.4098079 47.2832508,34.4098079 C47.2832508,34.4098079 44.9522437,38.3671941 44.9522437,39.6545738 C44.9522437,40.9419535 45.9958711,41.9855808 47.2832508,41.9855808 Z" id="Oval-Copy-9" fill-opacity="0.6"></path>
                <path d="M22.1083746,45.7151921 C23.3957543,45.7151921 24.4393817,44.6715648 24.4393817,43.384185 C24.4393817,42.0968053 22.1083746,38.1394192 22.1083746,38.1394192 C22.1083746,38.1394192 19.7773676,42.0968053 19.7773676,43.384185 C19.7773676,44.6715648 20.8209949,45.7151921 22.1083746,45.7151921 Z" id="Oval-Copy-6" fill-opacity="0.7"></path>
                <path d="M38.8916254,45.7151921 C40.1790051,45.7151921 41.2226324,44.6715648 41.2226324,43.384185 C41.2226324,42.0968053 38.8916254,38.1394192 38.8916254,38.1394192 C38.8916254,38.1394192 36.5606183,42.0968053 36.5606183,43.384185 C36.5606183,44.6715648 37.6042457,45.7151921 38.8916254,45.7151921 Z" id="Oval-Copy-8" fill-opacity="0.330000013"></path>
            </g>
        </g>
    </g>
</svg>
