<svg width="41px" height="47px" viewBox="0 0 41 47" version="1.1" xmlns="http://www.w3.org/2000/svg" xmlns:xlink="http://www.w3.org/1999/xlink">
    <defs>
        <polygon id="path-1" points="0 0 40.7429478 0 40.7429478 46.9544351 0 46.9544351"></polygon>
    </defs>
    <g id="Page-1" stroke="none" stroke-width="1" fill="none" fill-rule="evenodd">
        <g id="Snow" transform="translate(-43.000000, -177.000000)">
            <g id="snowflake" transform="translate(43.000000, 177.000000)">
                <g id="Page-1">
                    <mask id="mask-2" fill="white">
                        <use xlink:href="#path-1"></use>
                    </mask>
                    <g id="Clip-2"></g>
                    <path d="M40.1189991,33.5005954 L35.6999122,30.9331756 L37.0236774,30.5761908 C37.68966,30.3964427 38.0843296,29.7079466 37.9060687,29.0381069 C37.7274513,28.3679084 37.0436426,27.9721756 36.37766,28.1501298 L32.6438078,29.1575802 L30.8041557,28.0884198 L34.5593991,27.0759466 C35.2250252,26.8961985 35.6200513,26.2077023 35.4417904,25.5378626 C35.2635296,24.8680229 34.5800774,24.4704962 33.9133817,24.6498855 L27.7473383,26.3124656 L22.8669122,23.4770382 L27.7466252,20.6419695 L33.9126687,22.3049084 C34.0210513,22.3339695 34.1294339,22.3479618 34.2363904,22.3479618 C34.7872165,22.3479618 35.2916948,21.9780611 35.4410774,21.4169313 C35.6193383,20.7470916 35.2243122,20.0585954 34.5586861,19.8788473 L30.8030861,18.8660153 L32.6430948,17.796855 L36.3773035,18.8039466 C36.4856861,18.8330076 36.5940687,18.847 36.7010252,18.847 C37.2518513,18.847 37.7563296,18.4770992 37.9057122,17.9159695 C38.083973,17.2461298 37.688947,16.5576336 37.0233209,16.3778855 L35.6995557,16.0212595 L40.1186426,13.4538397 C40.71546,13.1069008 40.9201035,12.3391145 40.575347,11.7385191 C40.2305904,11.1379237 39.4676339,10.9319847 38.8708165,11.2785649 L34.4520861,13.8459847 L34.8068252,12.5145573 C34.9850861,11.8450763 34.59006,11.1562214 33.9244339,10.9768321 C33.2588078,10.7974427 32.5742861,11.1949695 32.3960252,11.8648092 L31.3956252,15.6219389 L29.555973,16.6907405 L30.5617209,12.912084 C30.7399817,12.2422443 30.3449557,11.5537481 29.6793296,11.374 C29.0129904,11.1953282 28.3295383,11.5921374 28.1512774,12.2619771 L26.4991557,18.4666947 L21.6194426,21.3017634 L21.6194426,15.6319847 L26.1333643,11.0898473 C26.6207296,10.5990382 26.6207296,9.80434351 26.1333643,9.31353435 C25.6459991,8.82344275 24.855947,8.82344275 24.3685817,9.31353435 L21.6194426,12.0800763 L21.6194426,9.94247328 L24.3532513,7.19135878 C24.8406165,6.7009084 24.8406165,5.90585496 24.3532513,5.41540458 C23.8658861,4.92531298 23.0758339,4.92531298 22.5884687,5.41540458 L21.6194426,6.39020611 L21.6194426,1.25572519 C21.6194426,0.562206107 21.060773,0 20.3716165,0 C19.68246,0 19.1237904,0.562206107 19.1237904,1.25572519 L19.1237904,6.39020611 L18.1551209,5.41540458 C17.6677557,4.92531298 16.8777035,4.92531298 16.3903383,5.41540458 C15.902973,5.90585496 15.902973,6.7009084 16.3903383,7.19135878 L19.1237904,9.94247328 L19.1237904,12.0800763 L16.3750078,9.31353435 C15.8876426,8.82344275 15.0975904,8.82344275 14.6102252,9.31353435 C14.12286,9.80434351 14.12286,10.5990382 14.6102252,11.0898473 L19.1237904,15.6319847 L19.1237904,21.3021221 L14.2444339,18.4674122 L12.5923122,12.2623359 C12.4140513,11.5924962 11.7309557,11.195687 11.0639035,11.3743588 C10.3982774,11.5541069 10.0032513,12.2426031 10.1815122,12.9124427 L11.187973,16.691458 L9.34796435,15.6222977 L8.34756435,11.8644504 C8.16894696,11.1942519 7.4840687,10.797084 6.81915565,10.9764733 C6.15352957,11.1558626 5.75850348,11.8443588 5.93676435,12.5141985 L6.29150348,13.8463435 L1.87277304,11.2789237 C1.27595565,10.9330611 0.51299913,11.1386412 0.167886087,11.7388779 C-0.176513913,12.3394733 0.0281295652,13.1072595 0.624946957,13.4541985 L5.04367739,16.0216183 L3.7202687,16.3782443 C3.05464261,16.5579924 2.65961652,17.2464885 2.83787739,17.9163282 C2.98726,18.477458 3.49138174,18.8473588 4.04220783,18.8473588 C4.14916435,18.8473588 4.25790348,18.8333664 4.36592957,18.8043053 L8.10013826,17.7972137 L9.94014696,18.866374 L6.18490348,19.8784885 C5.51927739,20.0578779 5.1242513,20.7467328 5.30251217,21.4165725 C5.45189478,21.9777023 5.95601652,22.3476031 6.50719913,22.3476031 C6.61379913,22.3476031 6.72253826,22.3336107 6.83056435,22.3045496 L12.9966078,20.6423282 L17.8756078,23.4770382 L12.9958948,26.3121069 L6.83020783,24.6495267 C6.16529478,24.470855 5.48041652,24.8673053 5.30215565,25.5375038 C5.12389478,26.2073435 5.51892087,26.8958397 6.18454696,27.0755878 L9.93943391,28.0880611 L8.09942522,29.1572214 L4.36521652,28.1504885 C3.69923391,27.9710992 3.01542522,28.368626 2.83716435,29.0384656 C2.65890348,29.7083053 3.05392957,30.3971603 3.71955565,30.5765496 L5.04260783,30.9331756 L0.624233913,33.5002366 C0.0274165217,33.8471756 -0.177226957,34.6149618 0.167173043,35.2155573 C0.398555652,35.6184656 0.817825217,35.8437786 1.24921652,35.8437786 C1.46099043,35.8437786 1.67526,35.7892443 1.87206,35.6755115 L6.29114696,33.1077328 L5.93640783,34.4398779 C5.75814696,35.1097176 6.15317304,35.7982137 6.81879913,35.9776031 C6.92682522,36.0066641 7.03556435,36.0206565 7.14252087,36.0206565 C7.69334696,36.0206565 8.19782522,35.6507557 8.34720783,35.089626 L9.34760783,31.3317786 L11.1876165,30.2629771 L10.1811557,34.0423511 C10.0028948,34.7121908 10.3979209,35.400687 11.063547,35.5804351 C11.1719296,35.6094962 11.2803122,35.6234885 11.3872687,35.6234885 C11.9384513,35.6234885 12.442573,35.253229 12.5919557,34.692458 L14.2440774,28.4870229 L19.1237904,25.6519542 L19.1237904,31.3224504 L14.6102252,35.8645878 C14.12286,36.3553969 14.12286,37.1500916 14.6102252,37.6409008 C15.0975904,38.1309924 15.8876426,38.1309924 16.3750078,37.6409008 L19.1237904,34.8743588 L19.1237904,37.0119618 L16.3903383,39.7630763 C15.902973,40.2535267 15.902973,41.0485802 16.3903383,41.5390305 C16.8777035,42.0291221 17.6677557,42.0291221 18.1551209,41.5390305 L19.1237904,40.5638702 L19.1237904,45.6987099 C19.1237904,46.392229 19.68246,46.9544351 20.3716165,46.9544351 C21.060773,46.9544351 21.6194426,46.392229 21.6194426,45.6987099 L21.6194426,40.5638702 L22.5884687,41.5390305 C22.831973,41.7840763 23.1514165,41.9067786 23.47086,41.9067786 C23.789947,41.9067786 24.1093904,41.7840763 24.3532513,41.5390305 C24.8406165,41.0485802 24.8406165,40.2535267 24.3532513,39.7630763 L21.6194426,37.0119618 L21.6194426,34.8743588 L24.3685817,37.6409008 C24.6120861,37.8859466 24.9315296,38.0082901 25.250973,38.0082901 C25.57006,38.0082901 25.8895035,37.8859466 26.1333643,37.6409008 C26.6207296,37.1500916 26.6207296,36.3553969 26.1333643,35.8645878 L21.6194426,31.3224504 L21.6194426,25.652313 L26.4995122,28.4877405 L28.1519904,34.6920992 C28.301373,35.253229 28.8054948,35.6231298 29.3563209,35.6231298 C29.4632774,35.6231298 29.5720165,35.6091374 29.6803991,35.5800763 C30.3456687,35.4003282 30.7406948,34.7118321 30.5624339,34.0419924 L29.5563296,30.2636947 L31.3963383,31.332855 L32.3967383,35.0899847 C32.5461209,35.6511145 33.0502426,36.0210153 33.6010687,36.0210153 C33.7080252,36.0210153 33.8167643,36.0070229 33.9247904,35.9779618 C34.590773,35.7985725 34.9857991,35.1100763 34.8075383,34.4402366 L34.4527991,33.1084504 L38.871173,35.6755115 C39.0676165,35.7896031 39.2822426,35.8441374 39.4940165,35.8441374 C39.9250513,35.8441374 40.3446774,35.6188244 40.5757035,35.215916 C40.92046,34.6153206 40.7158165,33.8475344 40.1189991,33.5005954" id="Fill-1" fill="#FFFFFF" mask="url(#mask-2)"></path>
                </g>
            </g>
        </g>
    </g>
</svg>
