<svg width="26px" height="22px" viewBox="0 0 26 22" version="1.1" xmlns="http://www.w3.org/2000/svg" xmlns:xlink="http://www.w3.org/1999/xlink">
    <defs></defs>
    <g id="Page-1" stroke="none" stroke-width="1" fill="none" fill-rule="evenodd" stroke-linecap="round">
        <g id="Rain" transform="translate(-299.000000, -395.000000)" stroke="#1B0083">
            <path d="M299,395.944444 C300.980214,395.944444 300.626038,396.944444 302.246997,396.944444 C303.867956,396.944444 303.775276,395.944444 305.49436,395.944444 C307.213444,395.944444 307.426223,396.944444 308.741564,396.944444 C310.056905,396.944444 310.301472,395.944444 311.988498,395.944444 C313.675525,395.944444 313.548597,396.944444 315.235623,396.944444 C316.922649,396.944444 316.795722,395.944444 318.482748,395.944444 C320.169774,395.944444 320.042846,396.944444 321.729872,396.944444 C323.416898,396.944444 322.68532,395.944444 324.976997,395.944444" id="Line"></path>
            <path d="M299,402.277778 C300.980214,402.277778 300.626038,403.277778 302.246997,403.277778 C303.867956,403.277778 303.775276,402.277778 305.49436,402.277778 C307.213444,402.277778 307.426223,403.277778 308.741564,403.277778 C310.056905,403.277778 310.301472,402.277778 311.988498,402.277778 C313.675525,402.277778 313.548597,403.277778 315.235623,403.277778 C316.922649,403.277778 316.795722,402.277778 318.482748,402.277778 C320.169774,402.277778 320.042846,403.277778 321.729872,403.277778 C323.416898,403.277778 322.68532,402.277778 324.976997,402.277778" id="Line-Copy-9"></path>
            <path d="M299,408.611111 C300.980214,408.611111 300.626038,409.611111 302.246997,409.611111 C303.867956,409.611111 303.775276,408.611111 305.49436,408.611111 C307.213444,408.611111 307.426223,409.611111 308.741564,409.611111 C310.056905,409.611111 310.301472,408.611111 311.988498,408.611111 C313.675525,408.611111 313.548597,409.611111 315.235623,409.611111 C316.922649,409.611111 316.795722,408.611111 318.482748,408.611111 C320.169774,408.611111 320.042846,409.611111 321.729872,409.611111 C323.416898,409.611111 322.68532,408.611111 324.976997,408.611111" id="Line-Copy-11"></path>
            <path d="M299,399.111111 C300.980214,399.111111 300.626038,400.111111 302.246997,400.111111 C303.867956,400.111111 303.775276,399.111111 305.49436,399.111111 C307.213444,399.111111 307.426223,400.111111 308.741564,400.111111 C310.056905,400.111111 310.301472,399.111111 311.988498,399.111111 C313.675525,399.111111 313.548597,400.111111 315.235623,400.111111 C316.922649,400.111111 316.795722,399.111111 318.482748,399.111111 C320.169774,399.111111 320.042846,400.111111 321.729872,400.111111 C323.416898,400.111111 322.68532,399.111111 324.976997,399.111111" id="Line"></path>
            <path d="M299,405.444444 C300.980214,405.444444 300.626038,406.444444 302.246997,406.444444 C303.867956,406.444444 303.775276,405.444444 305.49436,405.444444 C307.213444,405.444444 307.426223,406.444444 308.741564,406.444444 C310.056905,406.444444 310.301472,405.444444 311.988498,405.444444 C313.675525,405.444444 313.548597,406.444444 315.235623,406.444444 C316.922649,406.444444 316.795722,405.444444 318.482748,405.444444 C320.169774,405.444444 320.042846,406.444444 321.729872,406.444444 C323.416898,406.444444 322.68532,405.444444 324.976997,405.444444" id="Line-Copy-10"></path>
            <path d="M299,411.777778 C300.980214,411.777778 300.626038,412.777778 302.246997,412.777778 C303.867956,412.777778 303.775276,411.777778 305.49436,411.777778 C307.213444,411.777778 307.426223,412.777778 308.741564,412.777778 C310.056905,412.777778 310.301472,411.777778 311.988498,411.777778 C313.675525,411.777778 313.548597,412.777778 315.235623,412.777778 C316.922649,412.777778 316.795722,411.777778 318.482748,411.777778 C320.169774,411.777778 320.042846,412.777778 321.729872,412.777778 C323.416898,412.777778 322.68532,411.777778 324.976997,411.777778" id="Line-Copy-12"></path>
            <path d="M299,414.944444 C300.980214,414.944444 300.626038,415.944444 302.246997,415.944444 C303.867956,415.944444 303.775276,414.944444 305.49436,414.944444 C307.213444,414.944444 307.426223,415.944444 308.741564,415.944444 C310.056905,415.944444 310.301472,414.944444 311.988498,414.944444 C313.675525,414.944444 313.548597,415.944444 315.235623,415.944444 C316.922649,415.944444 316.795722,414.944444 318.482748,414.944444 C320.169774,414.944444 320.042846,415.944444 321.729872,415.944444 C323.416898,415.944444 322.68532,414.944444 324.976997,414.944444" id="Line-Copy-13"></path>
        </g>
    </g>
</svg>
