<svg width="30px" height="21px" viewBox="0 0 30 21" version="1.1" xmlns="http://www.w3.org/2000/svg" xmlns:xlink="http://www.w3.org/1999/xlink">
    <defs></defs>
    <g id="Page-1" stroke="none" stroke-width="1" fill="none" fill-rule="evenodd">
        <g id="iPhone-X" transform="translate(-104.000000, -272.000000)">
            <g id="Group-7" transform="translate(32.000000, 249.000000)">
                <g id="Group-3" transform="translate(72.750000, 0.000000)">
                    <g id="Little-cloudy" transform="translate(0.000000, 23.000000)">
                        <circle id="Oval-Copy" fill="#FFC130" cx="7.875" cy="7.875" r="7.875"></circle>
                        <path d="M24.9654255,20.6462766 L6.53457447,20.6462766 C4.375376,20.6462766 2.625,18.8959006 2.625,16.7367021 C2.625,14.5775037 4.375376,12.8271277 6.53457447,12.8271277 C6.59797072,12.8271277 6.66101454,12.8286366 6.72367197,12.8316205 C7.18243101,11.5277294 8.42488565,10.5930851 9.8856383,10.5930851 C11.5370805,10.5930851 12.9095105,11.7876776 13.1859434,13.3598776 C13.2192561,13.1874221 13.2367021,13.0093122 13.2367021,12.8271277 C13.2367021,11.5496964 12.3789746,10.4725983 11.208021,10.1403346 C12.3995911,7.75956729 14.8613022,6.125 17.7047872,6.125 C21.3351845,6.125 24.3432634,8.78946006 24.8801719,12.2695282 C22.7603403,12.3148797 21.0558511,14.0474831 21.0558511,16.1781915 L21.0954432,16.1781915 C21.3664491,14.283559 22.9958533,12.8271277 24.9654255,12.8271277 C27.124624,12.8271277 28.875,14.5775037 28.875,16.7367021 C28.875,18.8959006 27.124624,20.6462766 24.9654255,20.6462766 Z" id="Cloud-Copy" fill="#1B0083"></path>
                    </g>
                </g>
            </g>
        </g>
    </g>
</svg>
