<svg width="26px" height="22px" viewBox="0 0 26 22" version="1.1" xmlns="http://www.w3.org/2000/svg" xmlns:xlink="http://www.w3.org/1999/xlink">
    <defs></defs>
    <g id="Page-1" stroke="none" stroke-width="1" fill="none" fill-rule="evenodd">
        <g id="iPhone-X" transform="translate(-263.000000, -395.000000)">
            <g id="Rain" transform="translate(263.500000, 395.000000)">
                <g id="Group">
                    <path d="M4,21.5229616 L7.62346663,8" id="Line-Copy-2" stroke="#1B0083" stroke-width="0.8" stroke-linecap="square"></path>
                    <path d="M7.5,21.5229616 L11.1234666,8" id="Line-Copy-3" stroke="#1B0083" stroke-width="0.8" stroke-linecap="square"></path>
                    <path d="M11,21.5229616 L14.6234666,8" id="Line-Copy-4" stroke="#1B0083" stroke-width="0.8" stroke-linecap="square"></path>
                    <path d="M14.5,21.5229616 L18.1234666,8" id="Line-Copy-5" stroke="#1B0083" stroke-width="0.8" stroke-linecap="square"></path>
                    <path d="M18,21.5229616 L21.6234666,8" id="Line-Copy-6" stroke="#1B0083" stroke-width="0.8" stroke-linecap="square"></path>
                    <path d="M21.5384615,14 L3.76923077,14 C1.68754199,14 0,12.312458 0,10.2307692 C0,8.14908046 1.68754199,6.46153846 3.76923077,6.46153846 C3.83035126,6.46153846 3.89113197,6.46299324 3.95154015,6.46587006 C4.39383092,5.20878531 5.59168463,4.30769231 7,4.30769231 C8.59215967,4.30769231 9.91532298,5.45940199 10.1818327,6.97516407 C10.2139494,6.80889922 10.2307692,6.63718308 10.2307692,6.46153846 C10.2307692,5.22996371 9.40383194,4.19153062 8.27491256,3.87119441 C9.4237083,1.57589052 11.7970503,0 14.5384615,0 C18.0385368,0 20.9386334,2.56881278 21.4562683,5.92395536 C19.4125332,5.96767891 17.7692308,7.63808627 17.7692308,9.69230769 L17.8074017,9.69230769 C18.0686792,7.8656877 19.6395919,6.46153846 21.5384615,6.46153846 C23.6201503,6.46153846 25.3076923,8.14908046 25.3076923,10.2307692 C25.3076923,12.312458 23.6201503,14 21.5384615,14 Z" id="Cloud-Copy-5" fill="#1B0083"></path>
                </g>
            </g>
        </g>
    </g>
</svg>
