<svg width="30px" height="30px" viewBox="0 0 30 30" version="1.1" xmlns="http://www.w3.org/2000/svg" xmlns:xlink="http://www.w3.org/1999/xlink">
    <defs></defs>
    <g id="Page-1" stroke="none" stroke-width="1" fill="none" fill-rule="evenodd">
        <g id="iPhone-X-Copy" transform="translate(-172.000000, -675.000000)">
            <g id="Now" transform="translate(162.000000, 651.000000)">
                <g id="Sunny" transform="translate(10.000000, 24.000000)">
                    <path d="M14.6923077,22.3846154 C18.9406521,22.3846154 22.3846154,18.9406521 22.3846154,14.6923077 C22.3846154,10.4439633 18.9406521,7 14.6923077,7 C10.4439633,7 7,10.4439633 7,14.6923077 C7,18.9406521 10.4439633,22.3846154 14.6923077,22.3846154 Z" id="Oval-16" stroke="#FFFFFF" stroke-width="1.2"></path>
                    <path d="M14.6153846,0 C15.0431809,0 15.3846154,0.348468698 15.3846154,0.778326621 L15.3846154,3.06782722 C15.3846154,3.50483335 15.040219,3.84615385 14.6153846,3.84615385 C14.1875883,3.84615385 13.8461538,3.49768515 13.8461538,3.06782722 L13.8461538,0.778326621 C13.8461538,0.341320496 14.1905502,0 14.6153846,0 Z M21.9308498,1.960173 C22.3013323,2.17407114 22.4227889,2.64657113 22.2078599,3.01883901 L21.0631096,5.00160469 C20.8446065,5.3800631 20.3756903,5.50345715 20.0077729,5.29103994 C19.6372905,5.07714179 19.5158339,4.60464181 19.7307628,4.23237392 L20.8755131,2.24960824 C21.0940162,1.87114983 21.5629324,1.74775579 21.9308498,1.960173 Z M27.2861421,7.31546522 C27.5000402,7.68594767 27.3689747,8.15587295 26.9967068,8.37080192 L25.0139411,9.51555222 C24.6354827,9.73405528 24.1676923,9.60645954 23.9552751,9.23854214 C23.741377,8.86805969 23.8724425,8.3981344 24.2447104,8.18320544 L26.227476,7.03845514 C26.6059344,6.81995208 27.0737248,6.94754782 27.2861421,7.31546522 Z M29.2463151,14.6309304 C29.2463151,15.0587267 28.8978464,15.4001612 28.4679884,15.4001612 L26.1784878,15.4001612 C25.7414817,15.4001612 25.4001612,15.0557649 25.4001612,14.6309304 C25.4001612,14.2031341 25.7486299,13.8616997 26.1784878,13.8616997 L28.4679884,13.8616997 C28.9049946,13.8616997 29.2463151,14.206096 29.2463151,14.6309304 Z M27.2861421,21.9463957 C27.0722439,22.3168781 26.5997439,22.4383347 26.227476,22.2234057 L24.2447104,21.0786554 C23.866252,20.8601524 23.7428579,20.3912361 23.9552751,20.0233187 C24.1691733,19.6528363 24.6416732,19.5313797 25.0139411,19.7463087 L26.9967068,20.891059 C27.3751652,21.109562 27.4985593,21.5784783 27.2861421,21.9463957 Z M21.9308498,27.3016879 C21.5603674,27.515586 21.0904421,27.3845205 20.8755131,27.0122526 L19.7307628,25.0294869 C19.5122598,24.6510285 19.6398555,24.1832381 20.0077729,23.9708209 C20.3782554,23.7569228 20.8481806,23.8879883 21.0631096,24.2602562 L22.2078599,26.2430219 C22.426363,26.6214803 22.2987672,27.0892707 21.9308498,27.3016879 Z M14.6153846,29.2618609 C14.1875883,29.2618609 13.8461538,28.9133922 13.8461538,28.4835343 L13.8461538,26.1940336 C13.8461538,25.7570275 14.1905502,25.415707 14.6153846,25.415707 C15.0431809,25.415707 15.3846154,25.7641757 15.3846154,26.1940336 L15.3846154,28.4835343 C15.3846154,28.9205404 15.040219,29.2618609 14.6153846,29.2618609 Z M7.2999194,27.3016879 C6.92943694,27.0877897 6.80798036,26.6152897 7.02290932,26.2430219 L8.16765962,24.2602562 C8.38616268,23.8817978 8.85507892,23.7584037 9.22299632,23.9708209 C9.59347878,24.1847191 9.71493536,24.6572191 9.5000064,25.0294869 L8.3552561,27.0122526 C8.13675303,27.390711 7.6678368,27.5141051 7.2999194,27.3016879 Z M1.94462718,21.9463957 C1.73072903,21.5759132 1.86179454,21.1059879 2.23406242,20.891059 L4.2168281,19.7463087 C4.59528651,19.5278056 5.0630769,19.6554013 5.27549411,20.0233187 C5.48939226,20.3938012 5.35832675,20.8637265 4.98605887,21.0786554 L3.00329319,22.2234057 C2.62483478,22.4419088 2.15704439,22.3143131 1.94462718,21.9463957 Z M-0.0155458206,14.6309304 C-0.0155458206,14.2031341 0.332922877,13.8616997 0.762780801,13.8616997 L3.0522814,13.8616997 C3.48928753,13.8616997 3.83060803,14.206096 3.83060803,14.6309304 C3.83060803,15.0587267 3.48213933,15.4001612 3.0522814,15.4001612 L0.762780801,15.4001612 C0.325774676,15.4001612 -0.0155458206,15.0557649 -0.0155458206,14.6309304 Z M1.94462718,7.31546522 C2.15852532,6.94498276 2.63102531,6.82352618 3.00329319,7.03845514 L4.98605887,8.18320544 C5.36451728,8.40170851 5.48791133,8.87062474 5.27549411,9.23854214 C5.06159597,9.6090246 4.58909598,9.73048118 4.2168281,9.51555222 L2.23406242,8.37080192 C1.85560401,8.15229885 1.73220997,7.68338262 1.94462718,7.31546522 Z M7.2999194,1.960173 C7.67040185,1.74627485 8.14032713,1.87734036 8.3552561,2.24960824 L9.5000064,4.23237392 C9.71850946,4.61083233 9.59091372,5.07862272 9.22299632,5.29103994 C8.85251387,5.50493808 8.38258858,5.37387257 8.16765962,5.00160469 L7.02290932,3.01883901 C6.80440626,2.6403806 6.93200199,2.17259021 7.2999194,1.960173 Z" id="Aura" fill="#FFFFFF"></path>
                </g>
            </g>
        </g>
    </g>
</svg>
