
<svg width="45px" height="30px" viewBox="0 0 45 30" version="1.1" xmlns="http://www.w3.org/2000/svg" xmlns:xlink="http://www.w3.org/1999/xlink">
    <!-- Generator: Sketch 49 (51002) - http://www.bohemiancoding.com/sketch -->
    <desc>Created with Sketch.</desc>
    <defs>
        <path d="M0,39 L52,39 L52,0.404 L0,0.404 L0,39 Z M23.127,19.064 C23.127,17.604 22.148,16.373 20.809,15.993 C22.171,13.273 24.985,11.404 28.234,11.404 C32.384,11.404 35.821,14.449 36.434,18.427 C34.012,18.478 32.064,20.458 32.064,22.894 C32.419,20.728 34.281,19.064 36.532,19.064 C38.999,19.064 41,21.065 41,23.532 C41,25.999 38.999,28 36.532,28 L15.468,28 C13,28 11,25.999 11,23.532 C11,21.065 13,19.064 15.468,19.064 C15.54,19.064 15.613,19.065 15.684,19.069 C16.209,17.578 17.628,16.511 19.298,16.511 C21.185,16.511 22.754,17.876 23.07,19.673 C23.108,19.475 23.127,19.272 23.127,19.064 Z" id="path-1"></path>
    </defs>
    <g id="Page-1" stroke="none" stroke-width="1" fill="none" fill-rule="evenodd">
        <g id="partly-cloudy" transform="translate(0.000000, -1.000000)">
            <g id="Sun" transform="translate(0.000000, 0.595700)" fill="#FFFFFF">
                <path d="M14.6309,0.4043 C15.0589,0.4043 15.4009,0.7483 15.4009,1.1733 L15.4009,3.4813 C15.4009,3.9093 15.0559,4.2503 14.6309,4.2503 C14.2029,4.2503 13.8619,3.9063 13.8619,3.4813 L13.8619,1.1733 C13.8619,0.7453 14.2059,0.4043 14.6309,0.4043 M21.9459,2.3643 C22.3169,2.5783 22.4409,3.0473 22.2279,3.4153 L21.0739,5.4143 C20.8599,5.7843 20.3909,5.9073 20.0239,5.6953 C19.6529,5.4813 19.5289,5.0123 19.7419,4.6443 L20.8959,2.6463 C21.1099,2.2753 21.5789,2.1523 21.9459,2.3643 M27.3019,7.7193 C27.5159,8.0903 27.3879,8.5583 27.0199,8.7703 L25.0219,9.9243 C24.6509,10.1383 24.1829,10.0103 23.9709,9.6433 C23.7569,9.2723 23.8839,8.8043 24.2529,8.5923 L26.2509,7.4383 C26.6219,7.2243 27.0889,7.3523 27.3019,7.7193 M7.3159,27.7063 C6.9449,27.4923 6.8209,27.0233 7.0339,26.6553 L8.1879,24.6563 C8.4019,24.2863 8.8709,24.1623 9.2389,24.3753 C9.6089,24.5893 9.7329,25.0583 9.5199,25.4253 L8.3659,27.4243 C8.1519,27.7953 7.6839,27.9183 7.3159,27.7063 M1.9599,22.3503 C1.7459,21.9803 1.8739,21.5123 2.2419,21.3003 L4.2399,20.1463 C4.6109,19.9323 5.0789,20.0593 5.2909,20.4273 C5.5049,20.7983 5.3779,21.2663 5.0099,21.4783 L3.0109,22.6323 C2.6409,22.8463 2.1729,22.7183 1.9599,22.3503 M-0.0001,15.0353 C-0.0001,14.6073 0.3439,14.2663 0.7689,14.2663 L3.0769,14.2663 C3.5049,14.2663 3.8459,14.6103 3.8459,15.0353 C3.8459,15.4633 3.5019,15.8043 3.0769,15.8043 L0.7689,15.8043 C0.3409,15.8043 -0.0001,15.4603 -0.0001,15.0353 M1.9599,7.7193 C2.1739,7.3493 2.6429,7.2253 3.0109,7.4383 L5.0099,8.5923 C5.3799,8.8063 5.5039,9.2753 5.2909,9.6433 C5.0769,10.0133 4.6089,10.1363 4.2399,9.9243 L2.2419,8.7703 C1.8709,8.5563 1.7479,8.0883 1.9599,7.7193 M7.3159,2.3643 C7.6859,2.1503 8.1539,2.2783 8.3659,2.6463 L9.5199,4.6443 C9.7339,5.0153 9.6069,5.4833 9.2389,5.6953 C8.8679,5.9093 8.4009,5.7813 8.1879,5.4143 L7.0339,3.4153 C6.8199,3.0453 6.9479,2.5763 7.3159,2.3643" id="Fill-3"></path>
                <path d="M7.6001,15.0966 C7.6001,11.1856 10.7821,8.0046 14.6921,8.0046 C18.6031,8.0046 21.7851,11.1856 21.7851,15.0966 C21.7851,15.9476 21.6261,16.7596 21.3501,17.5156 C21.7711,17.5216 22.1731,17.5966 22.5501,17.7276 C22.8281,16.8996 22.9851,16.0166 22.9851,15.0966 C22.9851,10.5246 19.2651,6.8046 14.6921,6.8046 C10.1201,6.8046 6.4001,10.5246 6.4001,15.0966 C6.4001,19.1616 9.3431,22.5466 13.2091,23.2486 C13.3311,22.8456 13.4951,22.4606 13.7191,22.1146 C10.2681,21.6376 7.6001,18.6766 7.6001,15.0966" id="Fill-1"></path>
            </g>
            <g id="cloud" transform="translate(2.000000, 1.595700)">
                <mask id="mask-2" fill="white">
                    <use xlink:href="#path-1"></use>
                </mask>
                <g id="Clip-8"></g>
                <path d="M15.4683,28 C13.0003,28 11.0003,26 11.0003,23.532 C11.0003,21.064 13.0003,19.064 15.4683,19.064 C15.5403,19.064 15.6133,19.065 15.6843,19.069 C16.2083,17.579 17.6283,16.511 19.2983,16.511 C21.1853,16.511 22.7543,17.876 23.0703,19.673 C23.1083,19.476 23.1273,19.272 23.1273,19.064 C23.1273,17.604 22.1473,16.373 20.8093,15.993 C22.1713,13.272 24.9843,11.404 28.2343,11.404 C32.3833,11.404 35.8213,14.449 36.4343,18.427 C34.0113,18.479 32.0643,20.458 32.0643,22.894 C32.4193,20.729 34.2803,19.064 36.5313,19.064 C38.9993,19.064 41.0003,21.064 41.0003,23.532 C41.0003,26 38.9993,28 36.5313,28 L15.4683,28 Z" id="Stroke-7" stroke="#FFFFFF" stroke-width="2.8" mask="url(#mask-2)"></path>
            </g>
        </g>
    </g>
</svg>
